<mxfile host="Electron" agent="Mozilla/5.0 (Macintosh; Intel Mac OS X 10_15_7) AppleWebKit/537.36 (KHTML, like Gecko) draw.io/28.0.6 Chrome/138.0.7204.100 Electron/37.2.3 Safari/537.36" version="28.0.6" pages="2">
  <diagram name="第 1 页" id="Bli32nfOZfzYEt0H3vuR">
    <mxGraphModel dx="4074" dy="2426" grid="1" gridSize="10" guides="1" tooltips="1" connect="1" arrows="1" fold="1" page="1" pageScale="1" pageWidth="827" pageHeight="1169" math="0" shadow="0">
      <root>
        <mxCell id="0" />
        <mxCell id="1" parent="0" />
        <mxCell id="XHSCLjCGjgacgwTUqrd7-32" value="" style="verticalLabelPosition=bottom;verticalAlign=top;html=1;shape=offPageConnector;rounded=1;size=0.25;direction=north;fillColor=#F08E81;strokeColor=#FFFFFF;strokeWidth=10;shadow=0;labelBackgroundColor=none;fontColor=#1A1A1A;container=0;arcSize=100;" parent="1" vertex="1">
          <mxGeometry x="160" y="320" width="540" height="200" as="geometry" />
        </mxCell>
        <mxCell id="XHSCLjCGjgacgwTUqrd7-39" value="" style="verticalLabelPosition=bottom;verticalAlign=top;html=1;shape=offPageConnector;rounded=1;size=0.2898550724637682;direction=north;fillColor=light-dark(#5ABD7A,#5ABD7A);strokeColor=#FFFFFF;strokeWidth=10;shadow=0;labelBackgroundColor=none;fontColor=#1A1A1A;container=0;arcSize=100;" parent="1" vertex="1">
          <mxGeometry x="260" y="484" width="440" height="200" as="geometry" />
        </mxCell>
        <mxCell id="XHSCLjCGjgacgwTUqrd7-42" value="" style="verticalLabelPosition=bottom;verticalAlign=top;html=1;shape=offPageConnector;rounded=1;size=0.25;direction=north;fillColor=#F08E81;strokeColor=#FFFFFF;strokeWidth=10;shadow=0;labelBackgroundColor=none;fontColor=#1A1A1A;container=0;arcSize=100;" parent="1" vertex="1">
          <mxGeometry x="160" y="640" width="540" height="200" as="geometry" />
        </mxCell>
        <mxCell id="XHSCLjCGjgacgwTUqrd7-44" value="&lt;font face=&quot;Lucida Console&quot;&gt;&lt;span&gt;TaCAD&lt;/span&gt;&lt;/font&gt;" style="text;html=1;align=center;verticalAlign=middle;whiteSpace=wrap;rounded=0;fontFamily=Lucida Console;fontSize=114;fontColor=#FFFFFF;fontStyle=1;textShadow=1;container=0;" parent="1" vertex="1">
          <mxGeometry x="350" y="730" width="80" height="20" as="geometry" />
        </mxCell>
        <mxCell id="XHSCLjCGjgacgwTUqrd7-36" value="" style="ellipse;whiteSpace=wrap;html=1;aspect=fixed;rounded=1;labelBackgroundColor=none;strokeColor=none;container=0;" parent="1" vertex="1">
          <mxGeometry x="590" y="410" width="20" height="20" as="geometry" />
        </mxCell>
        <mxCell id="XHSCLjCGjgacgwTUqrd7-40" value="" style="ellipse;whiteSpace=wrap;html=1;aspect=fixed;rounded=1;labelBackgroundColor=none;strokeColor=none;container=0;" parent="1" vertex="1">
          <mxGeometry x="590" y="574" width="20" height="20" as="geometry" />
        </mxCell>
        <mxCell id="XHSCLjCGjgacgwTUqrd7-43" value="" style="ellipse;whiteSpace=wrap;html=1;aspect=fixed;rounded=1;labelBackgroundColor=none;strokeColor=none;container=0;" parent="1" vertex="1">
          <mxGeometry x="590" y="730" width="20" height="20" as="geometry" />
        </mxCell>
      </root>
    </mxGraphModel>
  </diagram>
  <diagram name="第 1 页 的副本" id="00rCeLWUxWqy0CCusFaM">
    <mxGraphModel dx="5260" dy="4027" grid="1" gridSize="10" guides="1" tooltips="1" connect="1" arrows="1" fold="1" page="1" pageScale="1" pageWidth="827" pageHeight="1169" math="0" shadow="0">
      <root>
        <mxCell id="fsqFhGsnQhFKVYwz_m7O-0" />
        <mxCell id="fsqFhGsnQhFKVYwz_m7O-1" parent="fsqFhGsnQhFKVYwz_m7O-0" />
        <mxCell id="pLxdXcJ18LHi_7DZ-UVz-0" value="" style="rounded=1;whiteSpace=wrap;html=1;fillColor=none;strokeColor=none;" vertex="1" parent="fsqFhGsnQhFKVYwz_m7O-1">
          <mxGeometry x="-330" y="219" width="3250" height="701" as="geometry" />
        </mxCell>
        <mxCell id="fsqFhGsnQhFKVYwz_m7O-2" value="" style="verticalLabelPosition=bottom;verticalAlign=top;html=1;shape=offPageConnector;rounded=1;size=0.25;direction=north;fillColor=#F08E81;strokeColor=#FFFFFF;strokeWidth=10;shadow=0;labelBackgroundColor=none;fontColor=#1A1A1A;container=0;arcSize=100;" parent="fsqFhGsnQhFKVYwz_m7O-1" vertex="1">
          <mxGeometry x="160" y="320" width="540" height="200" as="geometry" />
        </mxCell>
        <mxCell id="fsqFhGsnQhFKVYwz_m7O-3" value="" style="verticalLabelPosition=bottom;verticalAlign=top;html=1;shape=offPageConnector;rounded=1;size=0.2898550724637682;direction=north;fillColor=light-dark(#5ABD7A,#5ABD7A);strokeColor=#FFFFFF;strokeWidth=10;shadow=0;labelBackgroundColor=none;fontColor=#1A1A1A;container=0;arcSize=100;" parent="fsqFhGsnQhFKVYwz_m7O-1" vertex="1">
          <mxGeometry x="260" y="484" width="440" height="200" as="geometry" />
        </mxCell>
        <mxCell id="fsqFhGsnQhFKVYwz_m7O-4" value="" style="verticalLabelPosition=bottom;verticalAlign=top;html=1;shape=offPageConnector;rounded=1;size=0.25;direction=north;fillColor=#F08E81;strokeColor=#FFFFFF;strokeWidth=10;shadow=0;labelBackgroundColor=none;fontColor=#1A1A1A;container=0;arcSize=100;" parent="fsqFhGsnQhFKVYwz_m7O-1" vertex="1">
          <mxGeometry x="160" y="640" width="540" height="200" as="geometry" />
        </mxCell>
        <mxCell id="fsqFhGsnQhFKVYwz_m7O-5" value="&lt;font style=&quot;font-size: 510px;&quot; face=&quot;Tahoma&quot;&gt;TaCAD&lt;/font&gt;" style="text;html=1;align=center;verticalAlign=middle;whiteSpace=wrap;rounded=0;fontFamily=Lucida Console;fontSize=568;fontColor=#000000;fontStyle=1;textShadow=1;container=0;labelBackgroundColor=none;" parent="fsqFhGsnQhFKVYwz_m7O-1" vertex="1">
          <mxGeometry x="670" y="374" width="1880" height="420" as="geometry" />
        </mxCell>
        <mxCell id="fsqFhGsnQhFKVYwz_m7O-6" value="" style="ellipse;whiteSpace=wrap;html=1;aspect=fixed;rounded=1;labelBackgroundColor=none;strokeColor=none;container=0;" parent="fsqFhGsnQhFKVYwz_m7O-1" vertex="1">
          <mxGeometry x="590" y="410" width="20" height="20" as="geometry" />
        </mxCell>
        <mxCell id="fsqFhGsnQhFKVYwz_m7O-7" value="" style="ellipse;whiteSpace=wrap;html=1;aspect=fixed;rounded=1;labelBackgroundColor=none;strokeColor=none;container=0;" parent="fsqFhGsnQhFKVYwz_m7O-1" vertex="1">
          <mxGeometry x="590" y="574" width="20" height="20" as="geometry" />
        </mxCell>
        <mxCell id="fsqFhGsnQhFKVYwz_m7O-8" value="" style="ellipse;whiteSpace=wrap;html=1;aspect=fixed;rounded=1;labelBackgroundColor=none;strokeColor=none;container=0;" parent="fsqFhGsnQhFKVYwz_m7O-1" vertex="1">
          <mxGeometry x="590" y="730" width="20" height="20" as="geometry" />
        </mxCell>
        <mxCell id="oL_z3HjGglnThMRDB2Jo-0" value="&lt;font style=&quot;font-size: 100px;&quot; face=&quot;Tahoma&quot;&gt;TaCAD&lt;/font&gt;" style="text;html=1;align=center;verticalAlign=middle;whiteSpace=wrap;rounded=0;fontFamily=Lucida Console;fontSize=114;fontColor=#FFFFFF;fontStyle=1;textShadow=1;container=0;" parent="fsqFhGsnQhFKVYwz_m7O-1" vertex="1">
          <mxGeometry x="343" y="736" width="80" height="20" as="geometry" />
        </mxCell>
      </root>
    </mxGraphModel>
  </diagram>
</mxfile>
